<?xml version="1.0" standalone="no"?>
<!DOCTYPE svg PUBLIC "-//W3C//DTD SVG 20010904//EN"
 "http://www.w3.org/TR/2001/REC-SVG-20010904/DTD/svg10.dtd">
<svg version="1.0" xmlns="http://www.w3.org/2000/svg"
 width="700.000000pt" height="700.000000pt" viewBox="0 0 700.000000 700.000000"
 preserveAspectRatio="xMidYMid meet">
<metadata>
Created by potrace 1.14, written by Peter Selinger 2001-2017
</metadata>
<g transform="translate(0.000000,700.000000) scale(0.100000,-0.100000)"
fill="#000000" stroke="none">
<path d="M3457 6854 c-1 -1 -47 -4 -102 -8 -533 -34 -1040 -312 -1371 -752
-46 -62 -84 -116 -84 -122 0 -6 -3 -12 -7 -14 -24 -10 -140 -252 -186 -388
-46 -133 -73 -255 -93 -411 -3 -24 -7 -242 -8 -483 -1 -267 -6 -441 -12 -442
-5 -1 -67 -5 -139 -7 -71 -3 -143 -8 -160 -11 -87 -17 -132 -28 -150 -36 -11
-5 -43 -18 -72 -29 -168 -61 -350 -209 -457 -370 -98 -147 -146 -276 -172
-458 -4 -26 -7 -538 -7 -1138 0 -1143 1 -1157 45 -1310 99 -343 383 -613 733
-698 33 -8 85 -18 115 -23 72 -10 4211 -11 4315 -1 405 39 758 331 873 722 23
77 28 103 38 185 9 73 9 2166 0 2250 -37 353 -252 660 -570 815 -137 67 -260
95 -438 102 -82 3 -149 9 -149 12 -1 3 -2 200 -4 436 -1 237 -5 453 -9 480
-39 279 -93 459 -204 674 -247 480 -685 828 -1217 967 -33 9 -69 17 -80 19
-11 1 -38 6 -60 10 -22 4 -49 9 -60 11 -43 8 -302 23 -308 18z m173 -885 c110
-15 136 -22 214 -50 210 -77 381 -212 513 -406 61 -90 135 -278 148 -373 3
-25 8 -61 10 -80 3 -28 7 -565 5 -782 l0 -48 -1020 0 -1020 0 0 38 c-2 194 2
767 5 802 35 340 257 654 569 805 100 48 211 82 296 91 30 4 57 8 60 11 7 6
158 1 220 -8z m1980 -2634 c18 -11 42 -33 54 -48 l21 -28 1 -1062 c2 -937 0
-1066 -14 -1092 -20 -40 -48 -63 -91 -76 -25 -7 -699 -9 -2106 -7 l-2070 3
-32 24 c-64 48 -61 -7 -60 1144 0 969 1 1050 17 1079 21 40 58 68 99 77 18 3
958 6 2090 6 2021 -1 2058 -1 2091 -20z"/>
</g>
</svg>
